PathFileType	4	(X/Y/Z)	/Users/itak/Documents/Research/Walk-IL/dataset/trc/00201_00008.trc
DataRate	CameraRate	NumFrames	NumMarkers	Units	OrigDataRate	OrigDataStartFrame	OrigNumFrames
100.000000	100.000000	4	54	mm	100.000000	496	567
Frame#	Time	RPSI			LPSI			L3			STRN			T10			C7			CLAV			RBAK			LBAK			LSHO			LUPA			LAEL			LAOL			LWTS			LWPS			LFRA			LIFD			LHPS			LHTS			RSHO			RUPA			RAEL			RAOL			RWTS			RWPS			RFRA			RIFD			RHTS			RHPS			RBHD			LFHD			RFHD			LBHD			LHIP			RASI			LASI			LKNE			LTHI			LANK			LTIP			LTOE			LMT1			LMT5			LHEE			RKNE			RTHI			RANK			RTIP			RTOE			RMT1			RMT5			RHEE			RHIP			*53			
		X1	Y1	Z1	X2	Y2	Z2	X3	Y3	Z3	X4	Y4	Z4	X5	Y5	Z5	X6	Y6	Z6	X7	Y7	Z7	X8	Y8	Z8	X9	Y9	Z9	X10	Y10	Z10	X11	Y11	Z11	X12	Y12	Z12	X13	Y13	Z13	X14	Y14	Z14	X15	Y15	Z15	X16	Y16	Z16	X17	Y17	Z17	X18	Y18	Z18	X19	Y19	Z19	X20	Y20	Z20	X21	Y21	Z21	X22	Y22	Z22	X23	Y23	Z23	X24	Y24	Z24	X25	Y25	Z25	X26	Y26	Z26	X27	Y27	Z27	X28	Y28	Z28	X29	Y29	Z29	X30	Y30	Z30	X31	Y31	Z31	X32	Y32	Z32	X33	Y33	Z33	X34	Y34	Z34	X35	Y35	Z35	X36	Y36	Z36	X37	Y37	Z37	X38	Y38	Z38	X39	Y39	Z39	X40	Y40	Z40	X41	Y41	Z41	X42	Y42	Z42	X43	Y43	Z43	X44	Y44	Z44	X45	Y45	Z45	X46	Y46	Z46	X47	Y47	Z47	X48	Y48	Z48	X49	Y49	Z49	X50	Y50	Z50	X51	Y51	Z51	X52	Y52	Z52	X53	Y53	Z53	X54	Y54	Z54	

497	4.96	546.1005859375	1073.329833984375	761.7227783203125	669.7108764648438	1069.38037109375	774.6624755859375	606.0208740234375	1105.514770507812	770.9618530273438	596.1678466796875	1312.5693359375	1028.442016601562	619.7384033203125	1254.755249023438	736.190185546875	633.0900268554688	1525.6484375	795.3624877929688	610.6341552734375	1425.75390625	1000.128173828125	525.422607421875	1350.93896484375	724.8413696289062	733.5587158203125	1497.257202148438	798.501220703125	804.4567260742188	1483.851928710938	882.8306274414062	873.9481811523438	1347.162109375	863.4776000976562	874.96728515625	1128.38916015625	894.1258544921875	802.5682983398438	1113.203369140625	844.15087890625	821.599853515625	914.1895751953125	1029.107543945312	864.160888671875	880.0206909179688	953.3020629882812	879.3414306640625	1018.661987304688	920.1610717773438	785.1756591796875	736.1129150390625	1066.30712890625	854.2479248046875	814.5896606445312	983.7403564453125	835.273681640625	836.8616333007812	1050.677124023438	446.3253173828125	1508.889892578125	845.037841796875	376.4863586425781	1442.955078125	822.1129150390625	316.2411499023438	1155.103637695312	814.489501953125	413.1749267578125	1143.432861328125	817.6146240234375	312.45068359375	935.4302368164062	965.3644409179688	272.2547302246094	916.6217041015625	886.9944458007812	292.5554504394531	1085.157470703125	840.4425048828125	326.6015930175781	744.8054809570312	989.1216430664062	297.8763427734375	842.6378784179688	993.3700561523438	268.2911987304688	835.1734008789062	919.0875244140625	555.2947998046875	1688.65869140625	825.2485961914062	703.6824951171875	1746.564208984375	974.1691284179688	576.5297241210938	1761.956176757812	983.5821533203125	691.5406494140625	1679.683471679688	806.78125	776.6577758789062	998.3921508789062	885.9448852539062	455.1934509277344	1052.079223632812	990.5526733398438	713.8347778320312	1033.709228515625	1008.076049804688	717.7786254882812	500.7625122070312	886.251220703125	751.3438110351562	641.402587890625	895.0767211914062	700.1245727539062	40.75339889526367	826.7271728515625	722.6953125	278.8272399902344	859.1016235351562	670.3728637695312	42.65480804443359	1045.783813476562	625.1845703125	48.0503044128418	995.4854125976562	738.83740234375	33.22406005859375	934.4606323242188	632.7625122070312	43.1162109375	775.4019165039062	414.6592407226562	521.82861328125	904.8385620117188	386.9314270019531	793.251708984375	944.8811645507812	409.6811218261719	39.00514221191406	830.5436401367188	427.283203125	406.0234985351562	915.8399047851562	425.5867614746094	45.74003219604492	1055.927001953125	474.9235534667969	45.98307800292969	1004.168823242188	365.555908203125	39.10213851928711	939.3410034179688	480.53857421875	35.72203063964844	784.3207397460938	406.1091003417969	1029.489868164062	903.8792114257812	nan	nan	nan	
498	4.97	545.9733276367188	1073.141479492188	763.0265502929688	669.5946044921875	1069.14453125	776.329833984375	605.8390502929688	1105.283203125	772.4178466796875	595.2744140625	1312.442138671875	1029.627685546875	619.6421508789062	1254.497802734375	737.5437622070312	633.01513671875	1525.317626953125	796.6981811523438	609.716796875	1425.427490234375	1000.917236328125	525.4231567382812	1350.7470703125	725.8820190429688	733.4890747070312	1496.91748046875	800.1075439453125	804.2061157226562	1483.413208007812	884.5020751953125	873.4963989257812	1346.562622070312	865.1461181640625	873.6032104492188	1127.786010742188	894.7997436523438	800.9702758789062	1113.18310546875	844.9411010742188	821.23583984375	910.4537963867188	1025.26904296875	863.6592407226562	878.4202270507812	948.484375	878.2367553710938	1017.812683105469	918.6981201171875	785.2313232421875	731.0960693359375	1057.49169921875	854.0217895507812	812.1802368164062	977.1489868164062	835.02392578125	832.458740234375	1044.720947265625	446.1217346191406	1508.884643554688	845.7490844726562	376.3759765625	1442.884765625	822.67529296875	316	1154.973388671875	815.094482421875	412.8929748535156	1143.415771484375	818.4226684570312	312.2946472167969	935.9630126953125	966.9752807617188	272.3053588867188	916.6486206054688	888.6389770507812	292.3749084472656	1085.01025390625	841.3110961914062	326.8292236328125	745.5291137695312	991.8645629882812	297.8453369140625	843.3043212890625	995.440673828125	268.4674987792969	835.3279418945312	921.1756591796875	554.9793090820312	1688.291748046875	826.3165893554688	703.1378784179688	1746.588134765625	975.325927734375	575.8848876953125	1761.713134765625	984.5701904296875	691.214599609375	1679.551635742188	807.951904296875	776.2518920898438	998.3010864257812	887.8317260742188	454.2726440429688	1051.893432617188	991.5899047851562	712.7650756835938	1033.33544921875	1009.863952636719	717.4712524414062	500.7124328613281	887.3521728515625	750.9795532226562	641.3199462890625	896.7010498046875	700.113037109375	40.783447265625	826.7589111328125	722.5767211914062	278.8418273925781	859.735107421875	670.3244018554688	42.62441253662109	1045.809326171875	625.1216430664062	47.99641036987305	995.5324096679688	738.79150390625	33.26527786254883	934.479736328125	632.7745971679688	43.19994354248047	775.3945922851562	414.2087097167969	521.6865844726562	904.0855102539062	386.6344604492188	793.3311157226562	945.40380859375	409.7114868164062	38.97299194335938	830.5314331054688	426.9210510253906	406.0901184082031	915.1146240234375	425.4944152832031	45.70524978637695	1055.9072265625	474.8668518066406	46.00011444091797	1004.162536621094	365.4950561523438	39.04885482788086	939.2813110351562	480.5940856933594	35.7252082824707	784.3387451171875	405.3583984375	1029.278442382812	904.6756591796875	nan	nan	nan	
499	4.98	545.840087890625	1072.937133789062	764.288818359375	669.4463500976562	1068.899780273438	777.9736328125	605.6409912109375	1105.036743164062	773.8355712890625	594.337158203125	1312.314453125	1030.744506835938	619.5391845703125	1254.21875	738.851806640625	632.9069213867188	1524.973754882812	797.9564819335938	608.83740234375	1425.154052734375	1001.776733398438	525.4048461914062	1350.532836914062	726.8551025390625	733.3897705078125	1496.5654296875	801.6417846679688	803.9161376953125	1482.978149414062	886.119140625	873.0321655273438	1345.976196289062	866.7675170898438	872.33642578125	1127.228393554688	895.4454956054688	799.4747314453125	1113.153686523438	845.7091674804688	821.0645751953125	906.8877563476562	1021.398498535156	863.3460693359375	877.0156860351562	943.691650390625	877.2742309570312	1017.070434570312	917.2407836914062	785.5676879882812	726.368896484375	1048.593383789062	854.0255737304688	810.0233764648438	970.5637817382812	834.9911499023438	828.2828979492188	1038.7177734375	445.8800964355469	1508.836303710938	846.3764038085938	376.2350158691406	1442.790161132812	823.1561279296875	315.7090148925781	1154.816772460938	815.6666870117188	412.59033203125	1143.367431640625	819.1421508789062	312.2674255371094	936.482177734375	968.571533203125	272.3826904296875	916.640869140625	890.3286743164062	292.1849670410156	1084.815185546875	842.1730346679688	327.2219848632812	746.2362060546875	994.5801391601562	298.0287475585938	843.9653930664062	997.5478515625	268.7590637207031	835.4484252929688	923.3333740234375	554.6563720703125	1687.93701171875	827.322265625	702.5587768554688	1746.583984375	976.4506225585938	575.2098999023438	1761.462524414062	985.51904296875	690.8857421875	1679.443725585938	809.083984375	775.8790283203125	998.23486328125	889.5767822265625	453.3233947753906	1051.70947265625	992.5889282226562	711.6569213867188	1033.011840820312	1011.606262207031	717.1327514648438	500.6809387207031	888.4429931640625	750.53564453125	641.23828125	898.3416137695312	700.099853515625	40.81373596191406	826.7901000976562	722.4418334960938	278.8554382324219	860.3524169921875	670.2744140625	42.59535217285156	1045.835571289062	625.0572509765625	47.94312286376953	995.57666015625	738.7434692382812	33.30785751342773	934.4993286132812	632.7861938476562	43.2816276550293	775.3886108398438	413.7529907226562	521.5563354492188	903.4835205078125	386.2022399902344	793.3331909179688	945.802978515625	409.7416687011719	38.95340347290039	830.5213623046875	426.5762634277344	406.1285705566406	914.529052734375	425.414306640625	45.6665153503418	1055.897094726562	474.8173828125	46.00739288330078	1004.166625976562	365.4389953613281	38.99853134155273	939.2266235351562	480.6551818847656	35.73127746582031	784.3618774414062	404.5566101074219	1029.062744140625	905.4170532226562	nan	nan	nan	
500	4.99	545.7103271484375	1072.7197265625	765.5097045898438	669.2628784179688	1068.64453125	779.58740234375	605.4343872070312	1104.776977539062	775.2166137695312	593.35986328125	1312.187377929688	1031.799072265625	619.4281616210938	1253.923217773438	740.1174926757812	632.7664794921875	1524.633911132812	799.12841796875	607.9965209960938	1424.939697265625	1002.702331542969	525.3767700195312	1350.298095703125	727.76416015625	733.262939453125	1496.206909179688	803.1076049804688	803.5881958007812	1482.551025390625	887.6852416992188	872.5595092773438	1345.410522460938	868.336669921875	871.1742553710938	1126.71923828125	896.0463256835938	798.0894775390625	1113.117797851562	846.4320678710938	821.077392578125	903.524169921875	1017.52587890625	863.2164306640625	875.8106689453125	938.9678344726562	876.4579467773438	1016.435546875	915.792724609375	786.1624755859375	721.9788208007812	1039.6982421875	854.2452392578125	808.1297607421875	964.0487670898438	835.1659545898438	824.3724365234375	1032.72265625	445.601318359375	1508.745727539062	846.9284057617188	376.0628356933594	1442.675415039062	823.5580444335938	315.3774719238281	1154.631713867188	816.2093505859375	412.2744750976562	1143.286865234375	819.7863159179688	312.3558654785156	936.9813232421875	970.1494750976562	272.4844055175781	916.60009765625	892.0508422851562	291.9899597167969	1084.576293945312	843.0225219726562	327.7610473632812	746.9222412109375	997.2557983398438	298.3973388671875	844.6152954101562	999.67626953125	269.1395568847656	835.5427856445312	925.5318603515625	554.3156127929688	1687.598754882812	828.26416015625	701.9471435546875	1746.549682617188	977.537353515625	574.51513671875	1761.206665039062	986.432373046875	690.5504150390625	1679.35302734375	810.1771240234375	775.5404052734375	998.2033081054688	891.1856689453125	452.3519592285156	1051.539184570312	993.5426025390625	710.5307006835938	1032.747680664062	1013.31591796875	716.7645263671875	500.6556091308594	889.5074462890625	750.0321655273438	641.1565551757812	899.9763793945312	700.0877685546875	40.84355926513672	826.81982421875	722.2957763671875	278.8712463378906	860.9386596679688	670.223388671875	42.56810760498047	1045.86083984375	624.9925537109375	47.89170455932617	995.6156616210938	738.6937255859375	33.35060882568359	934.5188598632812	632.799560546875	43.35783004760742	775.3834228515625	413.3034362792969	521.4344482421875	903.04296875	385.5745544433594	793.192138671875	946.016357421875	409.7742614746094	38.94777297973633	830.5145263671875	426.2514343261719	406.1414489746094	914.0958251953125	425.3488159179688	45.62670516967773	1055.898559570312	474.7756042480469	46.00410461425781	1004.179565429688	365.3899536132812	38.95344543457031	939.1793823242188	480.7203369140625	35.74101257324219	784.3890991210938	403.7262878417969	1028.883666992188	906.1295166015625	nan	nan	nan	
